<svg width="203" height="59" viewBox="0 0 203 59" fill="none" xmlns="http://www.w3.org/2000/svg">
<path d="M29.2408 39.9052C23.7044 39.9052 19.1037 35.3045 19.1816 29.6901C19.2596 24.0756 23.7824 19.5529 29.3968 19.6309C34.8553 19.7089 39.3 24.1536 39.378 29.768C39.3 35.3825 34.8553 39.9052 29.2408 39.9052Z" fill="#FE3F31"/>
<path d="M41.4844 39.2816C38.5992 42.8686 34.2324 45.2079 29.2418 45.2079C20.5862 45.2079 13.5682 38.1899 13.5682 29.5343C13.5682 20.8787 20.5862 13.8607 29.2418 13.8607C34.1544 13.8607 38.4432 16.1221 41.3284 19.5531L50.7638 9.72784C45.3833 3.95746 37.7414 0.29248 29.2418 0.29248C13.1003 0.29248 0 13.3928 0 29.5343C0 45.6758 13.1003 58.7761 29.2418 58.7761C38.0533 58.7761 45.9291 54.8772 51.3096 48.7169L41.4844 39.2816Z" fill="#23424C"/>
<path d="M105.974 54.6435L102.777 48.2493H99.8917V54.6435H97.6304V39.5938H103.479C106.364 39.5938 108.157 41.4652 108.157 44.0385C108.157 46.2219 106.832 47.5475 105.116 48.0154L108.625 54.7215H105.974V54.6435ZM103.323 41.6212H99.8917V46.3779H103.323C104.882 46.3779 105.896 45.5201 105.896 44.0385C105.896 42.5569 104.882 41.6212 103.323 41.6212Z" fill="#6A797E"/>
<path d="M111.979 54.6435V39.5938H121.648V41.6212H114.318V46.0659H120.557V48.0934H114.318V52.6161H121.648V54.6435H111.979Z" fill="#6A797E"/>
<path d="M130.07 54.6439H128.276L123.286 39.5161H125.625L129.134 50.511L132.643 39.5161H135.06L130.07 54.6439Z" fill="#6A797E"/>
<path d="M137.557 54.6435V39.5938H139.818V54.7215H137.557V54.6435Z" fill="#6A797E"/>
<path d="M144.184 54.6435V39.5938H153.853V41.6212H146.523V46.0659H152.761V48.0934H146.523V52.6161H153.853V54.6435H144.184Z" fill="#6A797E"/>
<path d="M169.761 54.6439H167.734L164.692 44.0388L161.651 54.6439H159.624L155.647 39.5161H158.064L160.716 50.2771L163.757 39.5161H165.628L168.669 50.2771L171.321 39.5161H173.738L169.761 54.6439Z" fill="#6A797E"/>
<path d="M180.287 54.7997C178.025 54.7997 176.388 54.2538 174.906 52.7723L176.466 51.2907C177.558 52.3824 178.805 52.6943 180.287 52.6943C182.236 52.6943 183.406 51.8365 183.406 50.3549C183.406 49.7311 183.25 49.1073 182.782 48.7954C182.392 48.4055 182.002 48.2495 181.145 48.1715L179.351 47.9376C178.103 47.7817 177.168 47.3138 176.466 46.7679C175.686 46.0661 175.374 45.1304 175.374 43.8827C175.374 41.2315 177.246 39.438 180.443 39.438C182.47 39.438 183.874 39.9838 185.121 41.1535L183.64 42.5571C182.704 41.6994 181.612 41.3874 180.365 41.3874C178.571 41.3874 177.635 42.4012 177.635 43.7268C177.635 44.2726 177.791 44.7405 178.181 45.1304C178.571 45.4423 179.195 45.7542 179.897 45.8322L181.612 46.0661C183.016 46.3001 183.796 46.612 184.42 47.1578C185.277 47.8596 185.667 48.9513 185.667 50.277C185.745 53.1621 183.484 54.7997 180.287 54.7997Z" fill="#6A797E"/>
<path d="M79.8703 0.760287L82.0537 7.54439C82.2096 8.01226 82.6775 8.32417 83.1454 8.32417H90.3194C91.4111 8.32417 91.8789 9.72778 91.0212 10.4296L85.2508 14.6404C84.8609 14.9523 84.7049 15.4202 84.8609 15.8881L87.0443 22.6721C87.3562 23.7638 86.1865 24.6216 85.2508 23.9198L79.4804 19.709C79.0905 19.3971 78.5447 19.3971 78.1548 19.709L72.3844 23.9198C71.4486 24.5436 70.279 23.6859 70.5909 22.6721L72.7743 15.8881C72.9302 15.4202 72.7743 14.8743 72.3844 14.6404L66.614 10.4296C65.6783 9.80575 66.1461 8.32417 67.3158 8.32417H74.4898C74.9577 8.32417 75.4255 8.01226 75.5815 7.54439L77.6869 0.760287C78.0768 -0.253429 79.5584 -0.253429 79.8703 0.760287Z" fill="#FE3F31"/>
<path d="M107.611 0.760287L109.794 7.54439C109.95 8.01226 110.418 8.32417 110.886 8.32417H118.06C119.151 8.32417 119.619 9.72778 118.761 10.4296L112.991 14.6404C112.601 14.9523 112.445 15.4202 112.601 15.8881L114.785 22.6721C115.096 23.7638 113.927 24.6216 112.991 23.9198L107.221 19.709C106.831 19.3971 106.285 19.3971 105.895 19.709L100.125 23.9198C99.1889 24.5436 98.0192 23.6859 98.3311 22.6721L100.515 15.8881C100.67 15.4202 100.515 14.8743 100.125 14.6404L94.3542 10.4296C93.4185 9.80575 93.8864 8.32417 95.056 8.32417H102.23C102.698 8.32417 103.166 8.01226 103.322 7.54439L105.505 0.760287C105.817 -0.253429 107.299 -0.253429 107.611 0.760287Z" fill="#FE3F31"/>
<path d="M135.525 0.760287L137.708 7.54439C137.864 8.01226 138.332 8.32417 138.8 8.32417H145.974C147.066 8.32417 147.534 9.72778 146.676 10.4296L140.906 14.6404C140.516 14.9523 140.36 15.4202 140.516 15.8881L142.699 22.6721C143.011 23.7638 141.841 24.6216 140.906 23.9198L135.135 19.709C134.745 19.3971 134.199 19.3971 133.81 19.709L128.039 23.9198C127.103 24.5436 125.934 23.6859 126.246 22.6721L128.429 15.8881C128.585 15.4202 128.429 14.8743 128.039 14.6404L122.269 10.4296C121.333 9.80575 121.801 8.32417 122.971 8.32417H130.145C130.612 8.32417 131.08 8.01226 131.236 7.54439L133.342 0.760287C133.732 -0.253429 135.213 -0.253429 135.525 0.760287Z" fill="#FE3F31"/>
<path d="M163.441 0.760287L165.624 7.54439C165.78 8.01226 166.248 8.32417 166.716 8.32417H173.89C174.982 8.32417 175.45 9.72778 174.592 10.4296L168.822 14.6404C168.432 14.9523 168.276 15.4202 168.432 15.8881L170.615 22.6721C170.927 23.7638 169.757 24.6216 168.822 23.9198L163.051 19.709C162.661 19.3971 162.115 19.3971 161.726 19.709L155.955 23.9198C155.019 24.5436 153.85 23.6859 154.162 22.6721L156.345 15.8881C156.501 15.4202 156.345 14.8743 155.955 14.6404L150.185 10.4296C149.249 9.80575 149.717 8.32417 150.887 8.32417H158.061C158.528 8.32417 158.996 8.01226 159.152 7.54439L161.336 0.760287C161.648 -0.253429 163.129 -0.253429 163.441 0.760287Z" fill="#FE3F31"/>
<path d="M191.359 0.760287L193.542 7.54439C193.698 8.01226 194.166 8.32417 194.634 8.32417H201.808C202.899 8.32417 203.367 9.72778 202.509 10.4296L196.739 14.6404C196.349 14.9523 196.193 15.4202 196.349 15.8881L198.533 22.6721C198.844 23.7638 197.675 24.6216 196.739 23.9198L190.969 19.709C190.579 19.3971 190.033 19.3971 189.643 19.709L183.873 23.9198C182.937 24.5436 181.767 23.6859 182.079 22.6721L184.263 15.8881C184.419 15.4202 184.263 14.8743 183.873 14.6404L178.102 10.4296C177.167 9.80575 177.634 8.32417 178.804 8.32417H185.978C186.446 8.32417 186.914 8.01226 187.07 7.54439L189.253 0.760287C189.487 -0.253429 191.047 -0.253429 191.359 0.760287Z" fill="#FE3F31"/>
<path d="M75.1258 54.4034V51.5295H77.1117V49.6488H75.1258V39.6535H72.032L66.1162 49.4797V51.5295H72.8891V54.4034H75.1258ZM72.7427 41.83H72.8891V49.6488H68.123L72.7427 41.83Z" fill="#6A797E"/>
<path d="M84.1899 54.657C87.8272 54.657 89.4786 51.8465 89.4786 47.0284C89.4786 42.2104 87.8272 39.3999 84.1899 39.3999C80.5526 39.3999 78.9012 42.2104 78.9012 47.0284C78.9012 51.8465 80.5526 54.657 84.1899 54.657ZM84.1899 52.6283C82.1622 52.6283 81.4097 50.8955 81.4097 48.3175V45.7394C81.4097 43.1613 82.1622 41.4285 84.1899 41.4285C86.2176 41.4285 86.9701 43.1613 86.9701 45.7394V48.3175C86.9701 50.8955 86.2176 52.6283 84.1899 52.6283Z" fill="#6A797E"/>
</svg>
