<svg width="161" height="59" viewBox="0 0 161 59" fill="none" xmlns="http://www.w3.org/2000/svg">
<path fill-rule="evenodd" clip-rule="evenodd" d="M160.223 7.45425C160.223 7.25278 160.09 7.05132 159.956 6.98416C159.624 6.78269 159.091 6.64838 158.027 6.64838C155.565 6.64838 153.436 7.85718 152.504 9.939V7.45425C152.504 7.25278 152.305 7.05132 152.105 7.05132H148.512C148.312 7.05132 148.113 7.18563 148.113 7.45425V24.3102C148.113 24.5117 148.312 24.7132 148.512 24.7132H152.304C152.504 24.7132 152.704 24.5117 152.704 24.3102V16.7217C152.704 13.3639 155.033 11.685 158.027 11.685C158.759 11.685 159.424 11.8193 159.757 11.9537C160.023 12.0208 160.223 11.8193 160.223 11.5507V7.45425ZM135.869 6.64838C141.259 6.64838 145.251 10.4091 145.251 15.9158C145.251 21.4226 141.259 25.1833 135.936 25.1833C130.613 25.1833 126.62 21.4226 126.62 15.9158C126.554 10.3419 130.546 6.64838 135.869 6.64838ZM135.869 20.5495C138.464 20.5495 140.527 18.6692 140.527 15.8487C140.527 13.0281 138.531 11.1478 135.869 11.1478C133.274 11.1478 131.278 13.0281 131.278 15.8487C131.278 18.6692 133.274 20.5495 135.869 20.5495ZM114.643 6.64838C120.033 6.64838 123.959 10.4091 123.959 15.9158C123.959 21.4226 119.966 25.1833 114.643 25.1833C109.254 25.1833 105.261 21.4226 105.261 15.9158C105.328 10.3419 109.32 6.64838 114.643 6.64838ZM114.643 20.5495C117.238 20.5495 119.301 18.6692 119.301 15.8487C119.301 13.0281 117.305 11.1478 114.71 11.1478C112.115 11.1478 110.119 13.0281 110.119 15.8487C110.052 18.7364 112.048 20.5495 114.643 20.5495ZM102.134 0C102.334 0 102.533 0.134311 102.533 0.402932V24.3102C102.533 24.5117 102.4 24.7132 102.134 24.7132H98.3413C98.1416 24.7132 97.942 24.5117 97.942 24.3102V22.2284C96.6778 24.0416 94.6816 25.1161 92.1531 25.1161C87.8281 25.1161 84.235 21.8255 84.235 15.8487C84.235 9.87184 87.8281 6.58123 92.0866 6.58123C94.8147 6.58123 96.7443 7.85718 97.942 9.60322V0.402932C97.942 0.201466 98.1416 0 98.3413 0H102.134ZM93.4839 20.6167C96.0789 20.6167 98.0086 18.8035 98.0086 15.9158C98.0086 13.0281 96.0124 11.2149 93.4839 11.2149C90.8889 11.2149 88.9592 13.0953 88.9592 15.9158C88.9592 18.7364 90.8889 20.6167 93.4839 20.6167ZM81.7065 19.3407C81.7065 23.3701 78.8453 25.049 74.1875 25.049C70.9937 25.049 68.2656 24.1759 66.6686 22.3627C66.5355 22.2284 66.5355 22.027 66.6686 21.8255L68.8644 18.9378C68.9975 18.7364 69.2636 18.7364 69.4633 18.9378C70.5944 20.1466 72.4575 20.8853 74.6533 20.8853C75.9176 20.8853 76.9822 20.5495 76.9822 19.5422C76.9822 18.602 76.0506 18.4006 73.1229 17.729C70.5279 17.1918 67.334 15.983 67.334 12.1551C67.334 8.59589 70.1287 6.51407 74.6533 6.51407C77.6476 6.51407 79.7768 7.45425 81.3072 8.86451C81.4403 8.99882 81.4403 9.26744 81.3072 9.40175L79.2445 12.1551C79.1114 12.3566 78.8453 12.3566 78.7122 12.2223C77.7141 11.2821 75.9841 10.7449 74.3206 10.7449C72.9233 10.7449 72.1248 11.2149 72.1248 11.9537C72.1248 12.8267 73.0564 13.0281 76.1172 13.6997C79.178 14.5056 81.7065 15.6472 81.7065 19.3407ZM64.1401 19.3407C64.1401 23.3701 61.2789 25.049 56.6212 25.049C53.4273 25.049 50.6992 24.1759 49.1023 22.3627C48.9692 22.2284 48.9692 22.027 49.1023 21.8255L51.2981 18.9378C51.4312 18.7364 51.6973 18.7364 51.8969 18.9378C53.0281 20.1466 54.8912 20.8853 57.087 20.8853C58.3512 20.8853 59.4159 20.5495 59.4159 19.5422C59.4159 18.602 58.4843 18.4006 55.5566 17.729C52.9616 17.1918 49.7677 15.983 49.7677 12.1551C49.7677 8.59589 52.5623 6.51407 57.087 6.51407C60.0812 6.51407 62.2105 7.45425 63.7409 8.86451C63.874 8.99882 63.874 9.26744 63.7409 9.40175L61.6782 12.1551C61.5451 12.3566 61.279 12.3566 61.1459 12.2223C60.1478 11.2821 58.4178 10.7449 56.7543 10.7449C55.357 10.7449 54.5585 11.2149 54.5585 11.9537C54.5585 12.8267 55.49 13.0281 58.5508 13.6997C61.5451 14.5056 64.0736 15.6472 64.1401 19.3407ZM38.3229 6.64838C43.3799 6.64838 45.9084 8.93167 45.9084 13.834V24.3774C45.9084 24.5789 45.7088 24.7803 45.5092 24.7803H41.7164C41.5168 24.7803 41.3172 24.646 41.3172 24.3774V22.3627C40.4522 23.773 38.7222 25.1161 35.9941 25.1161C32.534 25.1161 30.1386 22.9 30.1386 19.6094C30.1386 16.3859 32.534 14.3713 35.7279 14.1026L40.4522 13.6997C41.0511 13.6325 41.3172 13.4311 41.3172 12.961V12.6924C41.3172 11.685 40.3857 10.9463 38.3229 10.9463C36.6595 10.9463 34.9295 11.4164 34.1975 12.8267C34.0644 13.0281 33.8648 13.0281 33.6652 12.961L30.8706 10.9463C30.7375 10.812 30.6709 10.6106 30.7375 10.4762C31.9352 7.92434 34.6633 6.71554 38.3229 6.64838ZM41.3172 17.5947V16.856L37.0587 17.3932C35.6614 17.5947 34.9295 18.3334 34.9295 19.3407C34.9295 20.4824 35.7945 21.2211 37.3914 21.2211C39.7203 21.2211 41.3172 19.4751 41.3172 17.5947ZM26.9448 0.402932V24.3102C26.9448 24.5117 26.7451 24.7132 26.5455 24.7132H22.6863C22.4866 24.7132 22.287 24.5117 22.287 24.3102V0.402932C22.287 0.201466 22.4866 0 22.6863 0H26.5455C26.8117 0 26.9448 0.201466 26.9448 0.402932ZM18.1616 7.05132C18.3612 7.05132 18.5608 7.25278 18.5608 7.45425V23.5044C18.5608 28.071 16.4316 32.1674 9.11227 32.1674C5.78531 32.1674 3.45644 31.2273 1.65988 29.6827C1.52681 29.5484 1.52681 29.3469 1.72642 28.944L3.45644 25.9891C3.58952 25.7877 3.85568 25.7205 3.98875 25.922C5.38608 27.1979 6.91648 27.8023 8.91265 27.8023C12.7719 27.8023 13.9696 25.7877 13.9696 23.2358V22.1613C12.8385 23.8402 10.9088 24.8475 8.38034 24.8475C3.85568 24.8475 0.329102 21.624 0.329102 15.7815C0.329102 9.87184 4.05529 6.64838 8.38034 6.64838C11.0419 6.64838 13.0381 7.92434 14.0362 9.53606V7.45425C14.0362 7.25278 14.2358 7.05132 14.4354 7.05132H18.1616ZM9.57804 20.6167C12.1731 20.6167 14.1027 18.8035 14.1027 15.9158C14.1027 13.0281 12.1731 11.2149 9.57804 11.2149C6.98302 11.2149 5.05338 13.0953 5.05338 15.9158C5.05338 18.7364 6.98302 20.6167 9.57804 20.6167Z" fill="#0DAB40"/>
<rect x="55.0576" y="38.4707" width="18.2427" height="18.2282" rx="1" fill="#0DAB40"/>
<rect x="76.521" y="38.4717" width="18.243" height="18.2282" rx="1" fill="#0DAB40"/>
<rect x="97.9829" y="38.4717" width="18.243" height="18.2282" rx="1" fill="#0DAB40"/>
<rect x="119.445" y="38.4717" width="18.2428" height="18.2282" rx="1" fill="#0DAB40"/>
<rect x="140.909" y="38.4717" width="18.243" height="18.2282" rx="1" fill="#0DAB40"/>
<path d="M64.1787 39.5449L65.9857 45.1017H71.8332L67.1025 48.536L68.9095 54.0928L64.1787 50.6585L59.448 54.0928L61.255 48.536L56.5243 45.1017H62.3718L64.1787 39.5449Z" fill="white"/>
<path d="M85.6422 39.5449L87.4491 45.1017H93.2966L88.5659 48.536L90.3728 54.0928L85.6422 50.6585L80.9115 54.0928L82.7185 48.536L77.9878 45.1017H83.8352L85.6422 39.5449Z" fill="white"/>
<path d="M107.105 39.5449L108.911 45.1017H114.759L110.028 48.536L111.835 54.0928L107.105 50.6585L102.374 54.0928L104.181 48.536L99.4501 45.1017H105.298L107.105 39.5449Z" fill="white"/>
<path d="M128.565 39.5449L130.372 45.1017H136.22L131.489 48.536L133.296 54.0928L128.565 50.6585L123.834 54.0928L125.641 48.536L120.911 45.1017H126.758L128.565 39.5449Z" fill="white"/>
<path d="M150.028 39.5449L151.835 45.1017H157.682L152.952 48.536L154.758 54.0928L150.028 50.6585L145.297 54.0928L147.104 48.536L142.373 45.1017H148.221L150.028 39.5449Z" fill="white"/>
<path d="M11.9186 54.8837V52.1677H13.9293V51.2375H11.9186V41.8989H10.3174L4.39697 51.1817V52.1677H10.8573V54.8837H11.9186ZM10.8015 42.8477H10.8573V51.2375H5.43957L10.8015 42.8477Z" fill="#3C3C3C"/>
<path d="M17.1987 55.0511C17.7945 55.0511 18.0924 54.7162 18.0924 54.214V54.0093C18.0924 53.5071 17.7945 53.1722 17.1987 53.1722C16.5843 53.1722 16.3051 53.5071 16.3051 54.0093V54.214C16.3051 54.7162 16.5843 55.0511 17.1987 55.0511Z" fill="#3C3C3C"/>
<path d="M25.2186 55.1069C27.732 55.1069 29.3704 53.414 29.3704 50.9027C29.3704 48.4657 27.8065 46.9403 25.4979 46.9403C23.934 46.9403 22.8914 47.6844 22.2584 48.8378L22.1839 48.8192C22.8169 45.7683 24.4181 43.8708 27.2852 41.8989H25.8144C23.4313 43.4244 21.011 46.345 21.011 50.3446C21.011 53.1908 22.4632 55.1069 25.2186 55.1069ZM25.2 54.1395C23.301 54.1395 22.1653 52.9676 22.1653 51.1445V50.8468C22.1653 49.0424 23.2824 47.889 25.2 47.889C27.099 47.889 28.2161 49.0424 28.2161 50.8468V51.1631C28.2161 52.9676 27.0804 54.1395 25.2 54.1395Z" fill="#3C3C3C"/>
<rect x="41.105" y="35.1865" width="1.07298" height="23.5894" fill="#3C3C3C"/>
</svg>
