<svg width="74" height="12" viewBox="0 0 74 12" fill="none" xmlns="http://www.w3.org/2000/svg">
<path d="M6.24 11.9745C9.84 11.9745 12.12 9.45453 12.12 6.33453V5.73453C12.12 2.61453 9.84 0.0945308 6.24 0.0945308C2.64 0.0945308 0.36 2.61453 0.36 5.73453V6.33453C0.36 9.45453 2.64 11.9745 6.24 11.9745ZM36.7088 11.9745C40.3088 11.9745 42.5888 9.45453 42.5888 6.33453V5.73453C42.5888 2.61453 40.3088 0.0945308 36.7088 0.0945308C33.1088 0.0945308 30.8288 2.61453 30.8288 5.73453V6.33453C30.8288 9.45453 33.1088 11.9745 36.7088 11.9745ZM67.1775 11.9745C70.7775 11.9745 73.0575 9.45453 73.0575 6.33453V5.73453C73.0575 2.61453 70.7775 0.0945308 67.1775 0.0945308C63.5775 0.0945308 61.2975 2.61453 61.2975 5.73453V6.33453C61.2975 9.45453 63.5775 11.9745 67.1775 11.9745Z" fill="black"/>
</svg>
