<svg width="139" height="27" viewBox="0 0 139 27" fill="none" xmlns="http://www.w3.org/2000/svg">
<path d="M55.6443 16.268V16.2258C55.6443 13.856 56.0912 12.1608 56.9683 11.1235C57.6515 10.4066 58.6129 10.0187 59.5996 10.0355C60.7803 10.0355 61.6827 10.3982 62.3321 11.115C62.6357 11.4608 62.8803 11.8572 63.0743 12.2704H68.2357C67.873 10.8367 67.2236 9.49577 66.3212 8.3235C64.702 6.47653 62.4165 5.54883 59.4563 5.54883C56.6563 5.54883 54.472 6.50183 52.8949 8.40783C51.3684 10.2548 50.6094 12.8439 50.6094 16.1415C50.6094 16.1836 50.6094 16.3439 50.6094 16.3861C50.6094 19.6836 51.3684 22.2643 52.8949 24.1197C54.472 26.0341 56.6563 26.9871 59.4563 26.9787C62.408 26.9787 64.6936 26.051 66.3212 24.204C67.2236 23.0318 67.873 21.6908 68.2357 20.2571H64.0863C63.5297 20.2571 62.9815 20.5185 62.6695 20.9824C62.5683 21.1342 62.4502 21.2776 62.3321 21.4209C61.6912 22.1378 60.7888 22.5004 59.5996 22.5004C58.6045 22.5257 57.6515 22.1294 56.9683 21.4125C56.0828 20.3836 55.6443 18.68 55.6443 16.3102V16.268Z" fill="#221F1F"/>
<path d="M83.7701 6.12353C82.3026 5.49944 80.6665 5.38137 79.1316 5.80306C77.5208 6.20787 76.1545 7.27051 75.3702 8.73796V1.78021C75.3702 0.801907 74.5774 0.0175781 73.6076 0.0175781H70.3438V26.6173H75.3533V16.0162C75.3533 14.2114 75.716 12.7945 76.4581 11.7656C77.1834 10.7452 78.381 10.1632 79.6292 10.2223C80.8436 10.1885 81.9906 10.7958 82.6484 11.8247L82.6569 11.8331C83.0617 12.4319 83.3484 13.0982 83.4918 13.8066C83.6183 14.5066 83.6773 15.215 83.6773 15.9319V26.6004H88.6279V14.6246C88.6279 12.2548 88.164 10.3994 87.2363 9.05844C86.3677 7.78496 85.1701 6.76449 83.7701 6.12353Z" fill="#221F1F"/>
<path d="M46.5706 8.35794C44.9429 6.50254 42.6574 5.56641 39.7141 5.56641C36.9141 5.56641 34.7214 6.51941 33.1527 8.42541C31.6346 10.2724 30.8672 12.8615 30.8672 16.1591C30.8672 19.6084 31.6515 22.265 33.2202 24.1204C34.7973 26.018 36.9731 26.9794 39.7815 26.9794C42.0924 26.9794 43.9984 26.3385 45.5249 25.1999C47.0513 24.0614 48.0802 22.4168 48.62 20.2578H44.6815C44.0743 20.2578 43.5008 20.553 43.1466 21.0421C42.6743 21.6915 41.755 22.5012 40.0936 22.5012C38.8117 22.5012 37.8502 22.0795 37.2009 21.253C36.5093 20.4855 36.1466 19.3048 36.096 17.7024H48.8308C48.8393 13.5952 48.1562 10.2555 46.5706 8.35794ZM36.1045 14.2193C36.1551 12.8868 36.5177 11.8579 37.2093 11.1326C37.9008 10.4157 38.8623 10.0194 39.8574 10.0531C41.0466 10.0531 41.9996 10.4664 42.5899 11.1326C43.1803 11.8073 43.5261 12.8278 43.6273 14.2193H36.1045Z" fill="#221F1F"/>
<path d="M34.0137 1.78021C34.0137 0.801907 33.2209 0.0175781 32.2511 0.0175781H15.1055V4.72355H21.9367V26.592H27.174V4.72355H34.0137V1.78021Z" fill="#221F1F"/>
<path d="M121.571 6.58725C120.373 6.91616 119.251 7.48965 118.29 8.28241C117.261 9.16794 116.46 10.2981 115.971 11.5631C115.363 13.1739 115.068 14.8944 115.119 16.6148V26.5918L120.28 26.6003V16.0076C120.28 14.4558 120.618 13.3257 121.309 12.6089C122.001 11.892 123.055 11.5209 124.48 11.5209H126.175V6.03906H125.442C124.134 6.03906 122.827 6.2246 121.571 6.58725Z" fill="#221F1F"/>
<path d="M136.995 11.5198C137.973 11.5198 138.757 10.727 138.757 9.75717V6.04637L132.862 6.0548V1.77051C132.862 0.792208 132.07 -0.000554469 131.091 0.00787917L127.701 0.0163128V16.4197C127.65 18.1402 127.945 19.8607 128.553 21.4715C129.05 22.7365 129.843 23.8666 130.872 24.7522C131.833 25.5449 132.947 26.1184 134.153 26.4473C135.409 26.8184 136.716 26.9955 138.024 26.9955H138.757V21.5221H137.062C135.637 21.5221 134.583 21.1595 133.891 20.4342C133.2 19.7173 132.862 18.5872 132.862 17.0354V11.5282H136.995V11.5198Z" fill="#221F1F"/>
<path d="M100.547 0.0078125C99.5264 0.0078125 98.6155 0.657203 98.2951 1.62707L89.8867 26.5906H95.4192L97.0469 21.1003H106.931L108.626 26.5906H114.15L104.924 0.0078125H100.547ZM98.4384 16.6136L101.972 5.32944L105.506 16.6136H98.4384Z" fill="#221F1F"/>
<path d="M7.55859 26.5737H12.914V6.95703H7.55859V26.5737Z" fill="#221F1F"/>
<path d="M0 8.7281V12.6582H5.33849V6.95703H1.77106C0.792762 6.95703 0 7.74979 0 8.7281Z" fill="#221F1F"/>
<path d="M12.8971 0H9.62484H9.32966C8.84894 0 8.41883 0.193974 8.09835 0.497585C8.08148 0.514452 8.07305 0.522886 8.05618 0.539753C7.74413 0.860231 7.55859 1.29035 7.55859 1.77106V2.07468V4.71441H12.8971V0Z" fill="#221F1F"/>
<path d="M5.33849 20.8809H0V26.5736H5.33849V20.8809Z" fill="#221F1F"/>
</svg>
